<mxfile host="app.diagrams.net" modified="2022-08-16T03:20:51.773Z" agent="5.0 (Windows NT 6.1; Win64; x64) AppleWebKit/537.36 (KHTML, like Gecko) Chrome/104.0.0.0 Safari/537.36" etag="JMW0VC6nsgwG4xf887DD" version="20.2.4" type="github">
  <diagram id="kgpKYQtTHZ0yAKxKKP6v" name="Page-1">
    <mxGraphModel dx="868" dy="450" grid="1" gridSize="10" guides="1" tooltips="1" connect="1" arrows="1" fold="1" page="1" pageScale="1" pageWidth="850" pageHeight="1100" math="0" shadow="0">
      <root>
        <mxCell id="0" />
        <mxCell id="1" parent="0" />
        <mxCell id="u79UOQJMdPNoBrVsTCho-1" value="app" style="shape=umlLifeline;perimeter=lifelinePerimeter;whiteSpace=wrap;html=1;container=1;collapsible=0;recursiveResize=0;outlineConnect=0;" vertex="1" parent="1">
          <mxGeometry x="170" y="70" width="100" height="640" as="geometry" />
        </mxCell>
        <mxCell id="u79UOQJMdPNoBrVsTCho-30" value="" style="html=1;points=[];perimeter=orthogonalPerimeter;" vertex="1" parent="u79UOQJMdPNoBrVsTCho-1">
          <mxGeometry x="45" y="92" width="10" height="80" as="geometry" />
        </mxCell>
        <mxCell id="u79UOQJMdPNoBrVsTCho-13" value="" style="edgeStyle=orthogonalEdgeStyle;rounded=0;orthogonalLoop=1;jettySize=auto;html=1;" edge="1" parent="1" source="u79UOQJMdPNoBrVsTCho-8" target="u79UOQJMdPNoBrVsTCho-12">
          <mxGeometry relative="1" as="geometry" />
        </mxCell>
        <mxCell id="u79UOQJMdPNoBrVsTCho-8" value="app" style="shape=umlLifeline;perimeter=lifelinePerimeter;whiteSpace=wrap;html=1;container=1;collapsible=0;recursiveResize=0;outlineConnect=0;" vertex="1" parent="1">
          <mxGeometry x="380" y="70" width="100" height="300" as="geometry" />
        </mxCell>
        <mxCell id="u79UOQJMdPNoBrVsTCho-14" value="" style="html=1;points=[];perimeter=orthogonalPerimeter;" vertex="1" parent="u79UOQJMdPNoBrVsTCho-8">
          <mxGeometry x="45" y="115" width="10" height="80" as="geometry" />
        </mxCell>
        <mxCell id="u79UOQJMdPNoBrVsTCho-15" value="dispatch" style="html=1;verticalAlign=bottom;startArrow=oval;endArrow=block;startSize=8;rounded=0;" edge="1" target="u79UOQJMdPNoBrVsTCho-14" parent="u79UOQJMdPNoBrVsTCho-8">
          <mxGeometry relative="1" as="geometry">
            <mxPoint x="-15" y="115" as="sourcePoint" />
          </mxGeometry>
        </mxCell>
        <mxCell id="u79UOQJMdPNoBrVsTCho-16" value="" style="html=1;points=[];perimeter=orthogonalPerimeter;" vertex="1" parent="u79UOQJMdPNoBrVsTCho-8">
          <mxGeometry x="40" y="240" width="10" height="40" as="geometry" />
        </mxCell>
        <mxCell id="u79UOQJMdPNoBrVsTCho-17" value="self call" style="edgeStyle=orthogonalEdgeStyle;html=1;align=left;spacingLeft=2;endArrow=block;rounded=0;entryX=1;entryY=0;" edge="1" target="u79UOQJMdPNoBrVsTCho-16" parent="u79UOQJMdPNoBrVsTCho-8">
          <mxGeometry relative="1" as="geometry">
            <mxPoint x="45" y="220" as="sourcePoint" />
            <Array as="points">
              <mxPoint x="75" y="220" />
            </Array>
          </mxGeometry>
        </mxCell>
        <mxCell id="u79UOQJMdPNoBrVsTCho-12" value="app" style="shape=umlLifeline;perimeter=lifelinePerimeter;whiteSpace=wrap;html=1;container=1;collapsible=0;recursiveResize=0;outlineConnect=0;" vertex="1" parent="1">
          <mxGeometry x="560" y="70" width="100" height="300" as="geometry" />
        </mxCell>
        <mxCell id="u79UOQJMdPNoBrVsTCho-25" value="" style="shape=umlLifeline;participant=umlActor;perimeter=lifelinePerimeter;whiteSpace=wrap;html=1;container=1;collapsible=0;recursiveResize=0;verticalAlign=top;spacingTop=36;outlineConnect=0;" vertex="1" parent="1">
          <mxGeometry x="50" y="75" width="20" height="635" as="geometry" />
        </mxCell>
        <mxCell id="u79UOQJMdPNoBrVsTCho-26" value="" style="html=1;points=[];perimeter=orthogonalPerimeter;" vertex="1" parent="u79UOQJMdPNoBrVsTCho-25">
          <mxGeometry x="5" y="75" width="10" height="505" as="geometry" />
        </mxCell>
        <mxCell id="u79UOQJMdPNoBrVsTCho-33" style="edgeStyle=orthogonalEdgeStyle;rounded=0;orthogonalLoop=1;jettySize=auto;html=1;exitX=1.1;exitY=0.103;exitDx=0;exitDy=0;exitPerimeter=0;" edge="1" parent="1" source="u79UOQJMdPNoBrVsTCho-26" target="u79UOQJMdPNoBrVsTCho-30">
          <mxGeometry relative="1" as="geometry">
            <mxPoint x="80" y="200" as="sourcePoint" />
          </mxGeometry>
        </mxCell>
        <mxCell id="u79UOQJMdPNoBrVsTCho-34" value="点击animate" style="edgeLabel;html=1;align=center;verticalAlign=middle;resizable=0;points=[];" vertex="1" connectable="0" parent="u79UOQJMdPNoBrVsTCho-33">
          <mxGeometry x="-0.1678" y="1" relative="1" as="geometry">
            <mxPoint as="offset" />
          </mxGeometry>
        </mxCell>
      </root>
    </mxGraphModel>
  </diagram>
</mxfile>
